<svg width="60" height="69" viewBox="0 0 60 69" fill="none" xmlns="http://www.w3.org/2000/svg">
    <path d="M12 22.5C12 21.9696 12.2107 21.4609 12.5858 21.0858C12.9609 20.7107 13.4696 20.5 14 20.5H34C34.5304 20.5 35.0391 20.7107 35.4142 21.0858C35.7893 21.4609 36 21.9696 36 22.5C36 23.0304 35.7893 23.5391 35.4142 23.9142C35.0391 24.2893 34.5304 24.5 34 24.5H14C13.4696 24.5 12.9609 24.2893 12.5858 23.9142C12.2107 23.5391 12 23.0304 12 22.5ZM14 32.5C13.4696 32.5 12.9609 32.7107 12.5858 33.0858C12.2107 33.4609 12 33.9696 12 34.5C12 35.0304 12.2107 35.5391 12.5858 35.9142C12.9609 36.2893 13.4696 36.5 14 36.5H34C34.5304 36.5 35.0391 36.2893 35.4142 35.9142C35.7893 35.5391 36 35.0304 36 34.5C36 33.9696 35.7893 33.4609 35.4142 33.0858C35.0391 32.7107 34.5304 32.5 34 32.5H14ZM12 46.5C12 45.9696 12.2107 45.4609 12.5858 45.0858C12.9609 44.7107 13.4696 44.5 14 44.5H22C22.5304 44.5 23.0391 44.7107 23.4142 45.0858C23.7893 45.4609 24 45.9696 24 46.5C24 47.0304 23.7893 47.5391 23.4142 47.9142C23.0391 48.2893 22.5304 48.5 22 48.5H14C13.4696 48.5 12.9609 48.2893 12.5858 47.9142C12.2107 47.5391 12 47.0304 12 46.5ZM8 2.5C8 1.96957 8.21071 1.46086 8.58579 1.08579C8.96086 0.710714 9.46957 0.5 10 0.5C10.5304 0.5 11.0391 0.710714 11.4142 1.08579C11.7893 1.46086 12 1.96957 12 2.5V4.5H22V2.5C22 1.96957 22.2107 1.46086 22.5858 1.08579C22.9609 0.710714 23.4696 0.5 24 0.5C24.5304 0.5 25.0391 0.710714 25.4142 1.08579C25.7893 1.46086 26 1.96957 26 2.5V4.5H36V2.5C36 1.96957 36.2107 1.46086 36.5858 1.08579C36.9609 0.710714 37.4696 0.5 38 0.5C38.5304 0.5 39.0391 0.710714 39.4142 1.08579C39.7893 1.46086 40 1.96957 40 2.5V4.5H42C43.5913 4.5 45.1174 5.13214 46.2426 6.25736C47.3679 7.38258 48 8.9087 48 10.5V29.428C46.696 29.988 45.472 30.796 44.408 31.864L44 32.272V10.5C44 9.96957 43.7893 9.46086 43.4142 9.08579C43.0391 8.71071 42.5304 8.5 42 8.5H6C5.46957 8.5 4.96086 8.71071 4.58579 9.08579C4.21071 9.46086 4 9.96957 4 10.5V58.5C4 59.0304 4.21071 59.5391 4.58579 59.9142C4.96086 60.2893 5.46957 60.5 6 60.5H20.88L20.228 63.112C20.1141 63.5672 20.0418 64.0317 20.012 64.5H6C4.4087 64.5 2.88258 63.8679 1.75736 62.7426C0.63214 61.6174 0 60.0913 0 58.5V10.5C0 8.9087 0.63214 7.38258 1.75736 6.25736C2.88258 5.13214 4.4087 4.5 6 4.5H8V2.5ZM47.24 34.692L27.92 54.012C26.794 55.1375 25.9949 56.5477 25.608 58.092L24.108 64.084C23.9601 64.6799 23.9688 65.304 24.1333 65.8956C24.2979 66.4872 24.6126 67.0261 25.047 67.4601C25.4814 67.8941 26.0207 68.2084 26.6124 68.3723C27.2041 68.5363 27.8282 68.5445 28.424 68.396L34.416 66.9C35.9605 66.5137 37.3709 65.7145 38.496 64.588L57.816 45.268C59.2006 43.8613 59.973 41.9644 59.965 39.9906C59.957 38.0168 59.1691 36.1262 57.7732 34.7308C56.3773 33.3354 54.4864 32.5483 52.5126 32.541C50.5388 32.5338 48.6422 33.3069 47.236 34.692H47.24Z" fill="black"/>
</svg>
