<svg width="66" height="55" viewBox="0 0 66 55" fill="none" xmlns="http://www.w3.org/2000/svg">
    <path d="M44.3875 20.4187L29.3875 10.4187C29.0109 10.1675 28.5732 10.0232 28.121 10.0013C27.6688 9.9794 27.2192 10.0807 26.82 10.2944C26.4209 10.508 26.0873 10.8261 25.8548 11.2145C25.6223 11.603 25.4997 12.0473 25.5 12.5V32.5C25.4997 32.9527 25.6223 33.397 25.8548 33.7855C26.0873 34.1739 26.4209 34.492 26.82 34.7056C27.2192 34.9193 27.6688 35.0206 28.121 34.9987C28.5732 34.9768 29.0109 34.8325 29.3875 34.5813L44.3875 24.5813C44.7304 24.353 45.0116 24.0436 45.2061 23.6805C45.4007 23.3174 45.5024 22.9119 45.5024 22.5C45.5024 22.0881 45.4007 21.6826 45.2061 21.3195C45.0116 20.9564 44.7304 20.647 44.3875 20.4187ZM30.5 27.8281V17.1875L38.4938 22.5L30.5 27.8281ZM60.5 0H5.5C4.17392 0 2.90215 0.526784 1.96447 1.46447C1.02678 2.40215 0.5 3.67392 0.5 5V40C0.5 41.3261 1.02678 42.5979 1.96447 43.5355C2.90215 44.4732 4.17392 45 5.5 45H60.5C61.8261 45 63.0979 44.4732 64.0355 43.5355C64.9732 42.5979 65.5 41.3261 65.5 40V5C65.5 3.67392 64.9732 2.40215 64.0355 1.46447C63.0979 0.526784 61.8261 0 60.5 0ZM60.5 40H5.5V5H60.5V40ZM65.5 52.5C65.5 53.163 65.2366 53.7989 64.7678 54.2678C64.2989 54.7366 63.663 55 63 55H3C2.33696 55 1.70107 54.7366 1.23223 54.2678C0.763392 53.7989 0.5 53.163 0.5 52.5C0.5 51.837 0.763392 51.2011 1.23223 50.7322C1.70107 50.2634 2.33696 50 3 50H63C63.663 50 64.2989 50.2634 64.7678 50.7322C65.2366 51.2011 65.5 51.837 65.5 52.5Z" fill="black"/>
</svg>
