<svg width="84" height="109" viewBox="0 0 84 109" fill="none" xmlns="http://www.w3.org/2000/svg">
    <g clip-path="url(#clip0_1088_108973)">
        <rect width="83.5887" height="124" fill="white"/>
        <path fill-rule="evenodd" clip-rule="evenodd" d="M65.9287 29.9147C65.9282 30.0367 65.9114 30.1548 65.8805 30.267C67.6838 31.2283 68.9121 33.1281 68.9121 35.313C68.9121 38.2058 66.7589 40.5988 63.9688 40.9757V42.9236C63.9688 52.2156 58.2537 60.1728 50.1469 63.4717V65.7967C52.9369 66.269 55.7274 66.9894 58.4516 67.9851C63.2657 69.7434 67.8765 72.3626 71.9266 75.9928C80.5755 83.7458 83.5872 96.1098 83.5872 114.562H83.5887V123.999H69.8181V124H67.3838V123.999H16.2048V124H13.7705V123.999H0V114.562C0 87.4731 10.0388 73.5009 25.1356 67.9851C27.8614 66.9891 30.6528 66.2685 33.4434 65.7963V63.473C25.3348 60.1749 19.6182 52.2168 19.6182 42.9236V40.9545C16.901 40.5139 14.8242 38.1549 14.8242 35.314C14.8242 33.1813 15.9946 31.3202 17.7277 30.3384C17.6829 30.2054 17.6586 30.0629 17.6583 29.9147C17.6462 24.4323 19.1164 0 41.7935 0C64.472 0 65.9423 24.4323 65.9287 29.9147Z" fill="#E0E2E8"/>
    </g>
    <defs>
        <clipPath id="clip0_1088_108973">
            <rect width="83.5887" height="124" fill="white"/>
        </clipPath>
    </defs>
</svg>
