<svg width="48" height="67" viewBox="0 0 48 67" fill="none" xmlns="http://www.w3.org/2000/svg">
    <path d="M10.666 13.5003C10.666 9.96411 12.0708 6.57272 14.5713 4.07224C17.0717 1.57175 20.4631 0.166992 23.9993 0.166992C27.5356 0.166992 30.927 1.57175 33.4274 4.07224C35.9279 6.57272 37.3327 9.96411 37.3327 13.5003V33.5003C37.3327 37.0365 35.9279 40.4279 33.4274 42.9284C30.927 45.4289 27.5356 46.8337 23.9993 46.8337C20.4631 46.8337 17.0717 45.4289 14.5713 42.9284C12.0708 40.4279 10.666 37.0365 10.666 33.5003V13.5003ZM23.9993 4.33366C21.5682 4.33366 19.2366 5.29943 17.5175 7.01851C15.7985 8.7376 14.8327 11.0692 14.8327 13.5003V33.5003C14.8327 35.9315 15.7985 38.2631 17.5175 39.9821C19.2366 41.7012 21.5682 42.667 23.9993 42.667C26.4305 42.667 28.7621 41.7012 30.4812 39.9821C32.2002 38.2631 33.166 35.9315 33.166 33.5003V13.5003C33.166 11.0692 32.2002 8.7376 30.4812 7.01851C28.7621 5.29943 26.4305 4.33366 23.9993 4.33366ZM25.666 56.3587C37.7743 55.5037 47.3327 45.4087 47.3327 33.0837C47.3327 32.5311 47.1132 32.0012 46.7225 31.6105C46.3318 31.2198 45.8019 31.0003 45.2493 31.0003C44.6968 31.0003 44.1669 31.2198 43.7762 31.6105C43.3855 32.0012 43.166 32.5311 43.166 33.0837C43.166 43.6687 34.5843 52.2503 23.9993 52.2503C13.4143 52.2503 4.83268 43.6687 4.83268 33.0837C4.83268 32.5311 4.61319 32.0012 4.22249 31.6105C3.83179 31.2198 3.30188 31.0003 2.74935 31.0003C2.19681 31.0003 1.66691 31.2198 1.27621 31.6105C0.885509 32.0012 0.666016 32.5311 0.666016 33.0837C0.666016 45.1253 9.78768 55.037 21.4993 56.2837V64.7503C21.4993 65.3029 21.7188 65.8328 22.1095 66.2235C22.5002 66.6142 23.0301 66.8337 23.5827 66.8337C24.1352 66.8337 24.6651 66.6142 25.0558 66.2235C25.4465 65.8328 25.666 65.3029 25.666 64.7503V56.3587Z" fill="black"/>
</svg>
